<svg width="567" height="58" viewBox="0 0 567 58" fill="none" xmlns="http://www.w3.org/2000/svg">
<rect x="0.5" y="0.5" width="566" height="57" rx="7.5" stroke="#3C4242"/>
<path d="M182.5 29.2219C182.5 28.3997 182.432 27.7997 182.285 27.1775H172.704V30.8886H178.328C178.214 31.8108 177.602 33.1997 176.242 34.133L176.222 34.2572L179.252 36.557L179.462 36.5775C181.389 34.833 182.5 32.2664 182.5 29.2219Z" fill="#4285F4"/>
<path d="M172.703 39C175.458 39 177.771 38.1111 179.46 36.5778L176.24 34.1332C175.379 34.7221 174.222 35.1332 172.703 35.1332C170.004 35.1332 167.714 33.3888 166.898 30.9777L166.778 30.9877L163.628 33.3766L163.587 33.4888C165.265 36.7555 168.712 39 172.703 39Z" fill="#34A853"/>
<path d="M166.899 30.9778C166.684 30.3556 166.559 29.6889 166.559 29C166.559 28.3111 166.684 27.6444 166.888 27.0222L166.882 26.8897L163.693 24.4624L163.588 24.5111C162.897 25.8667 162.5 27.3889 162.5 29C162.5 30.6111 162.897 32.1333 163.588 33.4888L166.899 30.9778Z" fill="#FBBC05"/>
<path d="M172.703 22.8666C174.619 22.8666 175.911 23.6777 176.648 24.3556L179.528 21.6C177.76 19.9889 175.458 19 172.703 19C168.712 19 165.265 21.2444 163.587 24.511L166.886 27.0222C167.714 24.6111 170.004 22.8666 172.703 22.8666Z" fill="#EB4335"/>
<path d="M206.973 27.616C206.137 26.45 204.685 25.57 202.859 25.57C199.779 25.57 197.733 27.792 197.733 30.85C197.733 33.886 199.779 36.108 202.859 36.108C204.685 36.108 206.137 35.184 206.973 34.04L208.645 35.294C207.413 37.076 205.389 38.176 202.859 38.176C198.613 38.176 195.665 35.096 195.665 30.85C195.665 26.604 198.613 23.524 202.859 23.524C205.389 23.524 207.413 24.624 208.645 26.406L206.973 27.616ZM215.206 38.198C212.148 38.198 210.014 35.954 210.014 32.94C210.014 29.882 212.148 27.682 215.206 27.682C218.242 27.682 220.354 29.882 220.354 32.94C220.354 35.954 218.242 38.198 215.206 38.198ZM215.206 36.306C217.12 36.306 218.396 34.854 218.396 32.94C218.396 31.004 217.12 29.596 215.206 29.596C213.27 29.596 211.994 31.004 211.994 32.94C211.994 34.854 213.27 36.306 215.206 36.306ZM227.759 27.726C229.717 27.726 231.763 28.848 231.763 31.774V38H229.783V32.06C229.783 30.19 228.463 29.42 227.187 29.42C225.933 29.42 224.635 30.19 224.635 32.06V38H222.655V27.88H224.635V29.112C225.405 28.122 226.593 27.726 227.759 27.726ZM239.359 29.398H237.005V35.118C237.005 36.218 237.709 36.416 238.413 36.416H239.249V38H237.643C235.949 38 235.025 37.054 235.025 35.404V29.398H233.639V27.88H235.025V24.778H237.005V27.88H239.359V29.398ZM242.62 25.944C242.048 25.944 241.454 25.482 241.454 24.778C241.454 24.052 242.048 23.656 242.62 23.656C243.192 23.656 243.764 24.052 243.764 24.778C243.764 25.482 243.192 25.944 242.62 25.944ZM243.61 38H241.63V27.88H243.61V38ZM251.499 27.726C253.457 27.726 255.503 28.848 255.503 31.774V38H253.523V32.06C253.523 30.19 252.203 29.42 250.927 29.42C249.673 29.42 248.375 30.19 248.375 32.06V38H246.395V27.88H248.375V29.112C249.145 28.122 250.333 27.726 251.499 27.726ZM265.275 27.88H267.255V38H265.275V36.79C264.505 37.78 263.317 38.176 262.151 38.176C260.193 38.176 258.147 37.032 258.147 34.106V27.88H260.127V33.82C260.127 35.69 261.447 36.46 262.723 36.46C263.977 36.46 265.275 35.69 265.275 33.82V27.88ZM274.585 27.704C277.533 27.704 279.447 29.926 279.447 32.94V33.512H271.483C271.681 35.316 272.957 36.482 274.717 36.482C276.169 36.482 277.093 35.822 277.577 35.118L278.963 36.108C278.083 37.384 276.565 38.198 274.717 38.198C271.637 38.198 269.569 35.954 269.569 32.94C269.569 29.926 271.549 27.704 274.585 27.704ZM274.585 29.288C272.847 29.288 271.725 30.454 271.483 32.214H277.599C277.357 30.52 276.279 29.288 274.585 29.288ZM303.059 23.7H305.237L300.463 38H298.725L295.381 27.968L292.037 38H290.277L285.503 23.7H287.703L291.179 34.238L294.677 23.7H296.195L299.627 33.974L303.059 23.7ZM308.168 25.944C307.596 25.944 307.002 25.482 307.002 24.778C307.002 24.052 307.596 23.656 308.168 23.656C308.74 23.656 309.312 24.052 309.312 24.778C309.312 25.482 308.74 25.944 308.168 25.944ZM309.158 38H307.178V27.88H309.158V38ZM317.004 29.398H314.65V35.118C314.65 36.218 315.354 36.416 316.058 36.416H316.894V38H315.288C313.594 38 312.67 37.054 312.67 35.404V29.398H311.284V27.88H312.67V24.778H314.65V27.88H317.004V29.398ZM324.202 27.726C326.16 27.726 328.206 28.848 328.206 31.774V38H326.226V32.06C326.226 30.19 324.906 29.42 323.63 29.42C322.376 29.42 321.078 30.19 321.078 32.06V38H319.098V23.7H321.078V29.112C321.848 28.122 323.036 27.726 324.202 27.726ZM349.092 31.18C348.938 35.25 346.364 38.176 342.228 38.176C337.982 38.176 335.034 35.096 335.034 30.85C335.034 26.604 337.982 23.524 342.228 23.524C344.758 23.524 346.782 24.624 348.014 26.384L346.32 27.594C345.374 26.252 343.878 25.57 342.228 25.57C339.148 25.57 337.102 27.792 337.102 30.85C337.102 33.886 339.148 36.108 342.228 36.108C344.582 36.108 346.43 34.634 346.76 32.192H342.118V30.3H349.092V31.18ZM356.38 38.198C353.322 38.198 351.188 35.954 351.188 32.94C351.188 29.882 353.322 27.682 356.38 27.682C359.416 27.682 361.528 29.882 361.528 32.94C361.528 35.954 359.416 38.198 356.38 38.198ZM356.38 36.306C358.294 36.306 359.57 34.854 359.57 32.94C359.57 31.004 358.294 29.596 356.38 29.596C354.444 29.596 353.168 31.004 353.168 32.94C353.168 34.854 354.444 36.306 356.38 36.306ZM368.691 38.198C365.633 38.198 363.499 35.954 363.499 32.94C363.499 29.882 365.633 27.682 368.691 27.682C371.727 27.682 373.839 29.882 373.839 32.94C373.839 35.954 371.727 38.198 368.691 38.198ZM368.691 36.306C370.605 36.306 371.881 34.854 371.881 32.94C371.881 31.004 370.605 29.596 368.691 29.596C366.755 29.596 365.479 31.004 365.479 32.94C365.479 34.854 366.755 36.306 368.691 36.306ZM384.191 27.88H386.171V37.252C386.171 40.178 384.147 42.224 380.825 42.224C379.043 42.224 377.525 41.52 376.601 40.42L377.899 39.32C378.713 40.2 379.791 40.53 380.825 40.53C382.387 40.53 384.191 39.606 384.191 37.252V36.438C383.443 37.494 382.255 38.176 380.693 38.176C377.855 38.176 375.809 35.954 375.809 32.94C375.809 29.926 377.855 27.726 380.693 27.726C382.255 27.726 383.443 28.386 384.191 29.464V27.88ZM380.957 36.306C382.915 36.306 384.191 34.876 384.191 32.94C384.191 30.982 382.915 29.596 380.957 29.596C379.021 29.596 377.745 30.982 377.745 32.94C377.745 34.876 379.021 36.306 380.957 36.306ZM390.795 38H388.815V23.7H390.817L390.795 38ZM398.141 27.704C401.089 27.704 403.003 29.926 403.003 32.94V33.512H395.039C395.237 35.316 396.513 36.482 398.273 36.482C399.725 36.482 400.649 35.822 401.133 35.118L402.519 36.108C401.639 37.384 400.121 38.198 398.273 38.198C395.193 38.198 393.125 35.954 393.125 32.94C393.125 29.926 395.105 27.704 398.141 27.704ZM398.141 29.288C396.403 29.288 395.281 30.454 395.039 32.214H401.155C400.913 30.52 399.835 29.288 398.141 29.288Z" fill="#8A33FD"/>
</svg>
