<svg width="567" height="58" viewBox="0 0 567 58" fill="none" xmlns="http://www.w3.org/2000/svg">
<rect x="0.5" y="0.5" width="566" height="57" rx="7.5" stroke="#3C4242"/>
<path d="M170.778 39C168.467 39 166.313 38.1818 164.5 36.7701C166.039 36.8914 168.756 36.601 170.445 34.6389C167.904 34.497 166.757 32.1237 166.608 31.1095C166.824 31.211 167.854 31.3327 168.435 31.0487C165.511 30.1562 165.063 27.0325 165.162 26.0791C165.711 26.5456 166.641 26.7079 167.007 26.6673C164.282 24.2941 165.262 20.7241 165.744 19.9533C167.699 23.251 170.629 25.1031 174.255 25.2061C174.186 24.8412 174.15 24.4612 174.15 24.071C174.15 21.2704 176.01 19 178.303 19C179.502 19 180.582 19.6198 181.34 20.6112C182.141 20.3827 183.346 19.8479 183.935 19.3854C183.638 20.6836 182.714 21.7665 182.154 22.1679C182.15 22.1542 182.159 22.1815 182.154 22.1679C182.646 22.0774 183.975 21.7664 184.5 21.3327C184.24 22.062 183.26 23.2745 182.456 23.9534C182.605 31.9896 177.555 39 170.778 39Z" fill="#47ACDF"/>
<path d="M208.96 27.616C208.124 26.45 206.672 25.57 204.846 25.57C201.766 25.57 199.72 27.792 199.72 30.85C199.72 33.886 201.766 36.108 204.846 36.108C206.672 36.108 208.124 35.184 208.96 34.04L210.632 35.294C209.4 37.076 207.376 38.176 204.846 38.176C200.6 38.176 197.652 35.096 197.652 30.85C197.652 26.604 200.6 23.524 204.846 23.524C207.376 23.524 209.4 24.624 210.632 26.406L208.96 27.616ZM217.193 38.198C214.135 38.198 212.001 35.954 212.001 32.94C212.001 29.882 214.135 27.682 217.193 27.682C220.229 27.682 222.341 29.882 222.341 32.94C222.341 35.954 220.229 38.198 217.193 38.198ZM217.193 36.306C219.107 36.306 220.383 34.854 220.383 32.94C220.383 31.004 219.107 29.596 217.193 29.596C215.257 29.596 213.981 31.004 213.981 32.94C213.981 34.854 215.257 36.306 217.193 36.306ZM229.746 27.726C231.704 27.726 233.75 28.848 233.75 31.774V38H231.77V32.06C231.77 30.19 230.45 29.42 229.174 29.42C227.92 29.42 226.622 30.19 226.622 32.06V38H224.642V27.88H226.622V29.112C227.392 28.122 228.58 27.726 229.746 27.726ZM241.347 29.398H238.993V35.118C238.993 36.218 239.697 36.416 240.401 36.416H241.237V38H239.631C237.937 38 237.013 37.054 237.013 35.404V29.398H235.627V27.88H237.013V24.778H238.993V27.88H241.347V29.398ZM244.607 25.944C244.035 25.944 243.441 25.482 243.441 24.778C243.441 24.052 244.035 23.656 244.607 23.656C245.179 23.656 245.751 24.052 245.751 24.778C245.751 25.482 245.179 25.944 244.607 25.944ZM245.597 38H243.617V27.88H245.597V38ZM253.486 27.726C255.444 27.726 257.49 28.848 257.49 31.774V38H255.51V32.06C255.51 30.19 254.19 29.42 252.914 29.42C251.66 29.42 250.362 30.19 250.362 32.06V38H248.382V27.88H250.362V29.112C251.132 28.122 252.32 27.726 253.486 27.726ZM267.262 27.88H269.242V38H267.262V36.79C266.492 37.78 265.304 38.176 264.138 38.176C262.18 38.176 260.134 37.032 260.134 34.106V27.88H262.114V33.82C262.114 35.69 263.434 36.46 264.71 36.46C265.964 36.46 267.262 35.69 267.262 33.82V27.88ZM276.572 27.704C279.52 27.704 281.434 29.926 281.434 32.94V33.512H273.47C273.668 35.316 274.944 36.482 276.704 36.482C278.156 36.482 279.08 35.822 279.564 35.118L280.95 36.108C280.07 37.384 278.552 38.198 276.704 38.198C273.624 38.198 271.556 35.954 271.556 32.94C271.556 29.926 273.536 27.704 276.572 27.704ZM276.572 29.288C274.834 29.288 273.712 30.454 273.47 32.214H279.586C279.344 30.52 278.266 29.288 276.572 29.288ZM305.046 23.7H307.224L302.45 38H300.712L297.368 27.968L294.024 38H292.264L287.49 23.7H289.69L293.166 34.238L296.664 23.7H298.182L301.614 33.974L305.046 23.7ZM310.156 25.944C309.584 25.944 308.99 25.482 308.99 24.778C308.99 24.052 309.584 23.656 310.156 23.656C310.728 23.656 311.3 24.052 311.3 24.778C311.3 25.482 310.728 25.944 310.156 25.944ZM311.146 38H309.166V27.88H311.146V38ZM318.991 29.398H316.637V35.118C316.637 36.218 317.341 36.416 318.045 36.416H318.881V38H317.275C315.581 38 314.657 37.054 314.657 35.404V29.398H313.271V27.88H314.657V24.778H316.637V27.88H318.991V29.398ZM326.189 27.726C328.147 27.726 330.193 28.848 330.193 31.774V38H328.213V32.06C328.213 30.19 326.893 29.42 325.617 29.42C324.363 29.42 323.065 30.19 323.065 32.06V38H321.085V23.7H323.065V29.112C323.835 28.122 325.023 27.726 326.189 27.726ZM347.934 23.7V25.592H343.402V38H341.356V25.592H336.802V23.7H347.934ZM361.899 27.88H363.967L360.601 38H358.643L356.267 31.004L353.869 38H351.911L348.589 27.88H350.657L353.011 35.206L355.563 27.88H357.015L359.523 35.206L361.899 27.88ZM366.896 25.944C366.324 25.944 365.73 25.482 365.73 24.778C365.73 24.052 366.324 23.656 366.896 23.656C367.468 23.656 368.04 24.052 368.04 24.778C368.04 25.482 367.468 25.944 366.896 25.944ZM367.886 38H365.906V27.88H367.886V38ZM382.397 29.398H380.043V35.118C380.043 36.218 380.747 36.416 381.451 36.416H382.287V38H380.681C378.965 38 378.063 37.054 378.063 35.404V29.398H373.377V35.118C373.377 36.218 374.081 36.416 374.785 36.416H375.621V38H374.015C372.299 38 371.397 37.054 371.397 35.404V29.398H370.011V27.88H371.397V24.778H373.377V27.88H378.063V24.778H380.043V27.88H382.397V29.398ZM388.635 27.704C391.583 27.704 393.497 29.926 393.497 32.94V33.512H385.533C385.731 35.316 387.007 36.482 388.767 36.482C390.219 36.482 391.143 35.822 391.627 35.118L393.013 36.108C392.133 37.384 390.615 38.198 388.767 38.198C385.687 38.198 383.619 35.954 383.619 32.94C383.619 29.926 385.599 27.704 388.635 27.704ZM388.635 29.288C386.897 29.288 385.775 30.454 385.533 32.214H391.649C391.407 30.52 390.329 29.288 388.635 29.288ZM397.788 29.75C398.58 28.364 399.944 27.748 401.352 27.726V29.596C399.988 29.618 397.788 30.212 397.788 32.808V38H395.808V27.88H397.788V29.75Z" fill="#8A33FD"/>
</svg>
